<svg width="58" height="58" viewBox="0 0 58 58" fill="none" xmlns="http://www.w3.org/2000/svg">
<g clip-path="url(#clip0_48_218)">
<rect width="58" height="58" rx="12" fill="#038650"/>
<path d="M22.9091 44C24.0137 44 24.9091 43.1046 24.9091 42V35.5656C24.9091 34.461 25.8045 33.5656 26.9091 33.5656H31.0909C32.1955 33.5656 33.0909 34.461 33.0909 35.5656V42C33.0909 43.1046 33.9863 44 35.0909 44H42C43.1046 44 44 43.1046 44 42V28.3484C44.0001 28.177 43.965 28.0073 43.8966 27.849C43.8281 27.6907 43.7277 27.5468 43.6011 27.4256L29.9648 14.3825C29.8381 14.2613 29.6877 14.1651 29.5222 14.0994C29.3566 14.0338 29.1792 14 29 14C28.8208 14 28.6434 14.0338 28.4778 14.0994C28.3123 14.1651 28.1619 14.2613 28.0352 14.3825L14.3989 27.4256C14.2723 27.5468 14.1719 27.6907 14.1035 27.849C14.035 28.0073 13.9999 28.177 14 28.3484V42C14 43.1046 14.8954 44 16 44H22.9091Z" fill="#FAFAFA"/>
</g>
<defs>
<clipPath id="clip0_48_218">
<rect width="58" height="58" rx="12" fill="white"/>
</clipPath>
</defs>
</svg>
