<svg width="58" height="58" viewBox="0 0 58 58" fill="none" xmlns="http://www.w3.org/2000/svg">
<g clip-path="url(#clip0_48_226)">
<rect width="58" height="58" rx="12" fill="#038650"/>
<path d="M36.5 14H21.5C17.3579 14 14 17.3579 14 21.5V36.5C14 40.6421 17.3579 44 21.5 44H36.5C40.6421 44 44 40.6421 44 36.5V21.5C44 17.3579 40.6421 14 36.5 14Z" fill="#FAFAFA"/>
<path d="M29 35.25C32.4518 35.25 35.25 32.4518 35.25 29C35.25 25.5482 32.4518 22.75 29 22.75C25.5482 22.75 22.75 25.5482 22.75 29C22.75 32.4518 25.5482 35.25 29 35.25Z" fill="#038650"/>
<path d="M37.125 22.75C38.1605 22.75 39 21.9105 39 20.875C39 19.8395 38.1605 19 37.125 19C36.0895 19 35.25 19.8395 35.25 20.875C35.25 21.9105 36.0895 22.75 37.125 22.75Z" fill="#038650"/>
</g>
<defs>
<clipPath id="clip0_48_226">
<rect width="58" height="58" rx="12" fill="white"/>
</clipPath>
</defs>
</svg>
