<svg width="58" height="58" viewBox="0 0 58 58" fill="none" xmlns="http://www.w3.org/2000/svg">
<g clip-path="url(#clip0_48_194)">
<rect width="58" height="58" rx="12" fill="#038650"/>
<path d="M34.2814 32.4791C34.4621 32.3589 34.6699 32.2856 34.8859 32.266C35.102 32.2464 35.3196 32.2809 35.519 32.3666L43.2083 35.8118C43.4674 35.9225 43.6837 36.1142 43.8248 36.3582C43.9659 36.6021 44.0241 36.8852 43.9909 37.1651C43.7376 39.0581 42.8053 40.7947 41.3676 42.052C39.9298 43.3092 38.0843 44.0015 36.1744 44C30.2934 44 24.6532 41.6638 20.4947 37.5053C16.3362 33.3468 14 27.7066 14 21.8256C13.9985 19.9157 14.6908 18.0702 15.948 16.6324C17.2053 15.1947 18.9419 14.2624 20.8349 14.0091C21.1148 13.9759 21.3979 14.0341 21.6418 14.1752C21.8858 14.3163 22.0775 14.5326 22.1882 14.7917L25.6334 22.4876C25.7181 22.6852 25.7525 22.9007 25.7338 23.1149C25.715 23.3291 25.6435 23.5354 25.5258 23.7153L22.0415 27.8583C21.9179 28.0448 21.8448 28.2602 21.8294 28.4834C21.8139 28.7066 21.8567 28.93 21.9534 29.1317C23.3018 31.8921 26.1552 34.7112 28.9237 36.0466C29.1265 36.1429 29.3509 36.1847 29.5748 36.1678C29.7987 36.1509 30.0143 36.076 30.2004 35.9504L34.2814 32.4791Z" fill="#FAFAFA" stroke="#FAFAFA" stroke-width="2" stroke-linecap="round" stroke-linejoin="round"/>
</g>
<defs>
<clipPath id="clip0_48_194">
<rect width="58" height="58" rx="12" fill="white"/>
</clipPath>
</defs>
</svg>
