<svg width="28" height="28" viewBox="0 0 28 28" fill="none" xmlns="http://www.w3.org/2000/svg">
<g clip-path="url(#clip0_51_8754)">
<path d="M14 18.375C16.4162 18.375 18.375 16.4162 18.375 14C18.375 11.5838 16.4162 9.625 14 9.625C11.5838 9.625 9.625 11.5838 9.625 14C9.625 16.4162 11.5838 18.375 14 18.375Z" stroke="#FAFAFA" stroke-width="2" stroke-miterlimit="10"/>
<path d="M19.25 3.5H8.75C5.85051 3.5 3.5 5.85051 3.5 8.75V19.25C3.5 22.1495 5.85051 24.5 8.75 24.5H19.25C22.1495 24.5 24.5 22.1495 24.5 19.25V8.75C24.5 5.85051 22.1495 3.5 19.25 3.5Z" stroke="#FAFAFA" stroke-width="2" stroke-linecap="round" stroke-linejoin="round"/>
<path d="M19.6875 9.625C20.4124 9.625 21 9.03737 21 8.3125C21 7.58763 20.4124 7 19.6875 7C18.9626 7 18.375 7.58763 18.375 8.3125C18.375 9.03737 18.9626 9.625 19.6875 9.625Z" fill="#FAFAFA"/>
</g>
<defs>
<clipPath id="clip0_51_8754">
<rect width="28" height="28" fill="white"/>
</clipPath>
</defs>
</svg>
